<?xml version="1.0" encoding="UTF-8" standalone="no"?>
<!-- Created with Inkscape (http://www.inkscape.org/) -->

<svg
   version="1.1"
   id="svg2"
   xml:space="preserve"
   width="610.66669"
   height="299.60001"
   viewBox="0 0 610.66669 299.60001"
   sodipodi:docname="LOGO TRIDOME 2002.svg"
   inkscape:version="1.1.2 (0a00cf5339, 2022-02-04)"
   xmlns:inkscape="http://www.inkscape.org/namespaces/inkscape"
   xmlns:sodipodi="http://sodipodi.sourceforge.net/DTD/sodipodi-0.dtd"
   xmlns="http://www.w3.org/2000/svg"
   xmlns:svg="http://www.w3.org/2000/svg"><defs
     id="defs6" /><sodipodi:namedview
     id="namedview4"
     pagecolor="#ffffff"
     bordercolor="#666666"
     borderopacity="1.0"
     inkscape:pageshadow="2"
     inkscape:pageopacity="0.0"
     inkscape:pagecheckerboard="0"
     showgrid="false"
     inkscape:zoom="2.2860261"
     inkscape:cx="305.11462"
     inkscape:cy="149.82331"
     inkscape:window-width="2490"
     inkscape:window-height="1376"
     inkscape:window-x="0"
     inkscape:window-y="0"
     inkscape:window-maximized="1"
     inkscape:current-layer="g10" /><g
     id="g8"
     inkscape:groupmode="layer"
     inkscape:label="ink_ext_XXXXXX"
     transform="matrix(1.3333333,0,0,-1.3333333,0,299.6)"><g
       id="g10"
       transform="scale(0.1)"><path
         d="m 2683.28,393.012 c -417.08,0 -755.19,338.097 -755.19,755.168 0,417.09 338.11,755.2 755.19,755.2 417.07,0 755.18,-338.11 755.18,-755.2 0,-417.071 -338.11,-755.168 -755.18,-755.168"
         style="fill:#ed1c24;fill-opacity:1;fill-rule:nonzero;stroke:none"
         id="path12" /><path
         d="m 2683.28,479 c -369.58,0 -669.2,299.609 -669.2,669.18 0,369.59 299.62,669.2 669.2,669.2 369.58,0 669.19,-299.61 669.19,-669.2 C 3352.47,778.609 3052.86,479 2683.28,479"
         style="fill:#fddd04;fill-opacity:1;fill-rule:nonzero;stroke:none"
         id="path14" /><path
         d="M 321.664,495 H 164.152 v 745.28 H 1.28125 v 152.4 H 484.535 v -152.4 H 321.664 V 495"
         style="fill:#00a650;fill-opacity:1;fill-rule:nonzero;stroke:none"
         id="path16" /><path
         d="m 735.816,979.559 h 20.36 c 86.793,0 147.871,28.571 147.871,138.091 0,110.73 -63.223,132.16 -146.801,132.16 h -21.43 z M 1124.79,495 H 934.047 L 737.961,856.93 h -2.145 V 495 H 578.301 v 897.68 h 213.238 c 159.656,0 270.031,-78.57 270.031,-270.26 0,-114.29 -56.79,-228.58 -165.023,-248.83 L 1124.79,495"
         style="fill:#00a650;fill-opacity:1;fill-rule:nonzero;stroke:none"
         id="path18" /><path
         d="m 1218.05,495 h 157.508 v 897.68 H 1218.05 Z"
         style="fill:#00a650;fill-opacity:1;fill-rule:nonzero;stroke:none"
         id="path20" /><path
         d="m 1653.62,647.391 h 25.72 c 193.94,0 268.95,119.05 268.95,296.449 0,195.24 -90.01,296.44 -268.95,296.44 h -25.72 z M 1496.1,1392.68 h 225.02 c 233.6,0 390.04,-194.07 390.04,-450.039 C 2111.16,690.25 1950.43,495 1720.05,495 H 1496.1 v 897.68"
         style="fill:#00a650;fill-opacity:1;fill-rule:nonzero;stroke:none"
         id="path22" /><path
         d="m 3868.4,1038.18 h -2.14 L 3683.03,469.102 h -54.65 l -176.8,569.078 h -2.14 l -71.79,-557.192 h -158.58 l 136.08,921.502 h 111.43 l 199.3,-591.709 190.74,591.709 H 3970.2 L 4091.28,480.988 H 3932.7 l -64.3,557.192"
         style="fill:#00a650;fill-opacity:1;fill-rule:nonzero;stroke:none"
         id="path24" /><path
         d="m 4318.34,1226.28 v -197.63 h 250.75 V 876.27 H 4318.34 V 633.398 h 260.39 v -152.41 h -417.9 v 897.692 h 417.9 v -152.4 h -260.39"
         style="fill:#00a650;fill-opacity:1;fill-rule:nonzero;stroke:none"
         id="path26" /><path
         d="m 1171.28,1591 c 0,0 -12,-108 80,-88 0,0 80,4 176,52 0,0 123.99,72 183.99,68 0,0 124.01,16 160,68 0,0 84.01,68 268.01,124 0,0 191.99,88 291.99,136 0,0 252.01,144 340,176 0,0 68,28 60,120 0,0 -67.99,-20 -92,-64 0,0 -11.99,-20 -55.99,-40 0,0 -88,-44 -120,-64 0,0 -72.01,-28 -172.01,-52 0,0 -131.99,-24 -171.99,-80 0,0 -20,-40 -68.01,-88 0,0 -7.99,-16 -95.99,-32 0,0 -184.01,-40 -228,-84 0,0 -4,-12 -80,-32 l -228,-8 c 0,0 -80,16 -124,-92 l -124,-20"
         style="fill:#ed1c24;fill-opacity:1;fill-rule:nonzero;stroke:none"
         id="path28" /><path
         d="m 4335.27,1463 h -116 c -135.99,80 -315.99,124 -315.99,124 -100,0 -120,44 -120,44 -36.01,52 -184.01,96 -184.01,96 -48,24 -143.99,56 -143.99,56 -64.01,32 -328.01,168 -328.01,168 l -303.99,164 c 0,0 -52.01,124 40,60 0,0 47.99,-64 95.99,-84 0,0 60,-8 80,-40 0,0 88,-48 216.01,-76 0,0 128,-4 188,-128 0,0 23.99,-44 112,-56 0,0 183.99,-40 228,-84 0,0 75.99,-48 155.99,-48 0,0 260,36 288,-80 0,0 8,-20 80,-28 0,0 52,24 48,-4 -4,-28 -20,-84 -20,-84"
         style="fill:#ed1c24;fill-opacity:1;fill-rule:nonzero;stroke:none"
         id="path30" /><path
         d="M 0,0 H 4580 V 360 H 0 Z"
         style="fill:#00a650;fill-opacity:1;fill-rule:nonzero;stroke:none"
         id="path32" /><path
         d="m 132.031,205.582 h 18.578 c 19.231,0 43.02,4.238 43.02,27.707 0,26.402 -23.141,28.359 -44,28.359 h -17.598 z m 0,-99.73 h 21.508 c 21.188,0 46.934,5.207 46.934,31.609 0,29.668 -24.114,34.23 -46.934,34.23 H 132.031 Z M 86.4023,297.5 H 165.93 c 29.328,0 73.328,-8.48 73.328,-58.352 0,-27.046 -18.25,-45.949 -45.301,-50.839 v -0.661 c 30.961,-2.929 52.148,-23.777 52.148,-51.808 C 246.105,78.4688 194.609,70 165.93,70 H 86.4023 v 227.5"
         style="fill:#ffffff;fill-opacity:1;fill-rule:nonzero;stroke:none"
         id="path34" /><path
         d="m 350.059,200.371 h 14.996 c 22.484,0 48.238,3.258 48.238,31.609 0,27.379 -25.426,29.668 -48.238,29.668 H 350.059 Z M 304.43,297.5 h 49.215 c 48.89,0 107.23,1.621 107.23,-61.602 0,-26.726 -17.926,-48.886 -46.934,-52.808 v -0.649 c 12.387,-0.98 19.555,-13.363 24.122,-23.472 L 474.566,70 h -50.843 l -27.379,71.051 C 389.824,158 383.957,164.52 364.727,164.52 H 350.059 V 70 H 304.43 v 227.5"
         style="fill:#ffffff;fill-opacity:1;fill-rule:nonzero;stroke:none"
         id="path36" /><path
         d="m 526.371,70 h 45.625 v 227.5 h -45.625 z"
         style="fill:#ffffff;fill-opacity:1;fill-rule:nonzero;stroke:none"
         id="path38" /><path
         d="m 809.238,73.2617 c -16.621,-3.9219 -34.55,-7.1719 -51.82,-7.1719 -73.664,0 -124.832,36.8322 -124.832,113.7502 0,77.89 47.586,121.558 124.832,121.558 14.988,0 34.875,-2.929 51.492,-9.449 l -3.254,-38.461 c -17.277,9.782 -32.922,12.063 -49.218,12.063 -46.934,0 -76.266,-35.852 -76.266,-82.461 0,-46.281 28.68,-81.149 77.246,-81.149 17.926,0 39.109,3.911 49.863,9.45 l 1.957,-38.1293"
         style="fill:#ffffff;fill-opacity:1;fill-rule:nonzero;stroke:none"
         id="path40" /><path
         d="m 965.992,101.941 c 46.608,0 63.888,41.399 63.888,82.45 0,40.097 -18.58,81.16 -63.888,81.16 -45.304,0 -63.883,-41.063 -63.883,-81.16 0,-41.051 17.278,-82.45 63.883,-82.45 z m 0,199.457 c 71.378,0 111.478,-48.238 111.478,-117.007 0,-68.762 -39.44,-118.3012 -111.478,-118.3012 -73.008,0 -111.469,48.5582 -111.469,118.3012 0,69.757 39.114,117.007 111.469,117.007"
         style="fill:#ffffff;fill-opacity:1;fill-rule:nonzero;stroke:none"
         id="path42" /><path
         d="m 1240.38,139.738 h 85.7227 v 35.8633 H 1240.38 Z"
         style="fill:#ffffff;fill-opacity:1;fill-rule:nonzero;stroke:none"
         id="path44" /><path
         d="m 1500.05,297.5 h 73.01 l 54.1,-172.418 h 0.65 l 54.11,172.418 h 73.01 V 70 h -43.68 v 187.73 h -0.65 L 1649.33,70 h -43.68 l -61.27,187.73 -0.65,-0.652 V 70 h -43.68 v 227.5"
         style="fill:#ffffff;fill-opacity:1;fill-rule:nonzero;stroke:none"
         id="path46" /><path
         d="m 1920.83,251.871 h -0.65 L 1887.26,158 h 66.49 z m -25.1,45.629 h 51.5 L 2036.53,70 h -50.52 l -19.55,52.148 h -92.24 L 1854.34,70 h -47.26 l 88.65,227.5"
         style="fill:#ffffff;fill-opacity:1;fill-rule:nonzero;stroke:none"
         id="path48" /><path
         d="m 2084.79,70 h 45.6328 V 297.5 H 2084.79 Z"
         style="fill:#ffffff;fill-opacity:1;fill-rule:nonzero;stroke:none"
         id="path50" /><path
         d="m 2324.31,255.781 c -14.34,6.188 -30.32,9.77 -46.29,9.77 -15.64,0 -35.85,-6.84 -35.85,-31.621 0,-39.43 99.73,-22.801 99.73,-99.078 0,-49.8637 -39.43,-68.7622 -85.39,-68.7622 -24.77,0 -35.85,3.25 -58.34,8.8008 l 4.24,41.0704 c 15.64,-8.481 33.57,-14.02 51.5,-14.02 17.27,0 40.41,8.797 40.41,29.329 0,43.359 -99.74,25.429 -99.74,100.71 0,50.848 39.44,69.418 79.53,69.418 19.56,0 37.81,-2.597 54.43,-8.136 l -4.23,-37.481"
         style="fill:#ffffff;fill-opacity:1;fill-rule:nonzero;stroke:none"
         id="path52" /><path
         d="m 2506.5,101.941 c 46.61,0 63.88,41.399 63.88,82.45 0,40.097 -18.57,81.16 -63.88,81.16 -45.3,0 -63.89,-41.063 -63.89,-81.16 0,-41.051 17.29,-82.45 63.89,-82.45 z m 0,199.457 c 71.38,0 111.47,-48.238 111.47,-117.007 0,-68.762 -39.44,-118.3012 -111.47,-118.3012 -73.01,0 -111.47,48.5582 -111.47,118.3012 0,69.757 39.12,117.007 111.47,117.007"
         style="fill:#ffffff;fill-opacity:1;fill-rule:nonzero;stroke:none"
         id="path54" /><path
         d="m 2680.21,297.5 h 56.06 l 86.7,-170.141 h 0.65 V 297.5 h 43.67 V 70 h -55.73 l -87.02,170.129 h -0.65 V 70 h -43.68 v 227.5"
         style="fill:#ffffff;fill-opacity:1;fill-rule:nonzero;stroke:none"
         id="path56" /><path
         d="m 3039.04,139.738 h 85.7109 v 35.8633 H 3039.04 Z"
         style="fill:#ffffff;fill-opacity:1;fill-rule:nonzero;stroke:none"
         id="path58" /><path
         d="m 3279.48,109.762 c 6.19,-2.282 12.71,-3.91 21.83,-3.91 29.66,0 29.66,23.796 29.66,40.089 V 297.5 h 45.64 V 124.102 c 0,-24.1215 -15.66,-58.0122 -62.26,-58.0122 -12.39,0 -22.16,0.9688 -34.87,4.2305 v 39.4417"
         style="fill:#ffffff;fill-opacity:1;fill-rule:nonzero;stroke:none"
         id="path60" /><path
         d="m 3538.58,251.871 h -0.65 L 3505.01,158 h 66.5 z m -25.1,45.629 h 51.51 L 3654.28,70 h -50.51 l -19.56,52.148 h -92.23 L 3472.1,70 h -47.27 l 88.65,227.5"
         style="fill:#ffffff;fill-opacity:1;fill-rule:nonzero;stroke:none"
         id="path62" /><path
         d="m 3748.17,200.371 h 14.99 c 22.49,0 48.24,3.258 48.24,31.609 0,27.379 -25.42,29.668 -48.24,29.668 h -14.99 z m -45.63,97.129 h 49.22 c 48.89,0 107.23,1.621 107.23,-61.602 0,-26.726 -17.92,-48.886 -46.93,-52.808 v -0.649 c 12.38,-0.98 19.55,-13.363 24.12,-23.472 L 3872.68,70 h -50.85 l -27.38,71.051 c -6.52,16.949 -12.38,23.469 -31.61,23.469 h -14.67 V 70 h -45.63 v 227.5"
         style="fill:#ffffff;fill-opacity:1;fill-rule:nonzero;stroke:none"
         id="path64" /><path
         d="m 3974.03,105.852 h 25.42 c 38.13,0 74.96,28.359 74.96,77.898 0,49.539 -36.83,77.898 -74.96,77.898 h -25.42 z M 3928.39,297.5 h 62.26 C 4060.4,297.5 4122,274.031 4122,183.75 4122,93.4609 4060.4,70 3990.65,70 h -62.26 v 227.5"
         style="fill:#ffffff;fill-opacity:1;fill-rule:nonzero;stroke:none"
         id="path66" /><path
         d="m 4182.64,70 h 45.6289 V 297.5 H 4182.64 Z"
         style="fill:#ffffff;fill-opacity:1;fill-rule:nonzero;stroke:none"
         id="path68" /><path
         d="m 4297.65,297.5 h 56.06 l 86.7,-170.141 h 0.65 V 297.5 h 43.67 V 70 H 4429 l -87.02,170.129 h -0.66 V 70 h -43.67 v 227.5"
         style="fill:#ffffff;fill-opacity:1;fill-rule:nonzero;stroke:none"
         id="path70" /></g></g></svg>
